<mxfile host="65bd71144e">
    <diagram name="Page-1" id="660AsX_Y9n6Rhkl5prjH">
        <mxGraphModel dx="875" dy="802" grid="1" gridSize="10" guides="1" tooltips="1" connect="1" arrows="1" fold="1" page="1" pageScale="1" pageWidth="850" pageHeight="1100" background="#ffffff" math="0" shadow="0">
            <root>
                <mxCell id="0"/>
                <mxCell id="1" parent="0"/>
                <mxCell id="0XNInrx-Nnn9Z4QuyvJh-1" value="System" style="rounded=0;whiteSpace=wrap;html=1;fillColor=#dae8fc;strokeColor=#6c8ebf;" parent="1" vertex="1">
                    <mxGeometry x="487.5" y="290" width="235" height="80" as="geometry"/>
                </mxCell>
                <mxCell id="0XNInrx-Nnn9Z4QuyvJh-2" value="" style="rounded=0;whiteSpace=wrap;html=1;fillColor=#ffe6cc;strokeColor=#d79b00;" parent="1" vertex="1">
                    <mxGeometry x="580" y="436.5" width="50" height="297" as="geometry"/>
                </mxCell>
                <mxCell id="0XNInrx-Nnn9Z4QuyvJh-3" value="" style="endArrow=none;html=1;rounded=0;entryX=0.5;entryY=1;entryDx=0;entryDy=0;exitX=0.5;exitY=0;exitDx=0;exitDy=0;" parent="1" source="0XNInrx-Nnn9Z4QuyvJh-2" target="0XNInrx-Nnn9Z4QuyvJh-1" edge="1">
                    <mxGeometry width="50" height="50" relative="1" as="geometry">
                        <mxPoint x="439" y="780" as="sourcePoint"/>
                        <mxPoint x="489" y="730" as="targetPoint"/>
                    </mxGeometry>
                </mxCell>
                <mxCell id="0XNInrx-Nnn9Z4QuyvJh-4" value="" style="endArrow=classic;html=1;rounded=0;entryX=0;entryY=0.25;entryDx=0;entryDy=0;" parent="1" edge="1">
                    <mxGeometry relative="1" as="geometry">
                        <mxPoint x="230" y="517" as="sourcePoint"/>
                        <mxPoint x="580" y="517.75" as="targetPoint"/>
                        <Array as="points"/>
                    </mxGeometry>
                </mxCell>
                <mxCell id="0XNInrx-Nnn9Z4QuyvJh-5" value="API Gateway" style="edgeLabel;resizable=0;html=1;;align=center;verticalAlign=middle;" parent="0XNInrx-Nnn9Z4QuyvJh-4" connectable="0" vertex="1">
                    <mxGeometry relative="1" as="geometry"/>
                </mxCell>
                <mxCell id="0XNInrx-Nnn9Z4QuyvJh-6" value="" style="endArrow=none;html=1;rounded=0;entryX=0.462;entryY=1;entryDx=0;entryDy=0;entryPerimeter=0;" parent="1" edge="1">
                    <mxGeometry width="50" height="50" relative="1" as="geometry">
                        <mxPoint x="230" y="720" as="sourcePoint"/>
                        <mxPoint x="234.57000000000016" y="410" as="targetPoint"/>
                    </mxGeometry>
                </mxCell>
                <mxCell id="0XNInrx-Nnn9Z4QuyvJh-7" value="Employee" style="shape=umlActor;verticalLabelPosition=bottom;verticalAlign=top;html=1;outlineConnect=0;" parent="1" vertex="1">
                    <mxGeometry x="210" y="300" width="50" height="90" as="geometry"/>
                </mxCell>
                <mxCell id="0XNInrx-Nnn9Z4QuyvJh-8" value="Login Page Employee" style="text;html=1;align=center;verticalAlign=middle;resizable=0;points=[];autosize=1;strokeColor=none;fillColor=none;" parent="1" vertex="1">
                    <mxGeometry x="337.5" y="780" width="140" height="30" as="geometry"/>
                </mxCell>
                <mxCell id="0XNInrx-Nnn9Z4QuyvJh-9" value="" style="endArrow=classic;html=1;rounded=0;" parent="1" edge="1">
                    <mxGeometry relative="1" as="geometry">
                        <mxPoint x="580" y="705" as="sourcePoint"/>
                        <mxPoint x="230" y="700" as="targetPoint"/>
                        <Array as="points"/>
                    </mxGeometry>
                </mxCell>
                <mxCell id="0XNInrx-Nnn9Z4QuyvJh-10" value="show success message" style="edgeLabel;resizable=0;html=1;;align=center;verticalAlign=middle;" parent="0XNInrx-Nnn9Z4QuyvJh-9" connectable="0" vertex="1">
                    <mxGeometry relative="1" as="geometry"/>
                </mxCell>
                <mxCell id="0XNInrx-Nnn9Z4QuyvJh-11" value="request check in or check out base on&amp;nbsp;&lt;div&gt;&lt;span style=&quot;text-align: center; background-color: light-dark(#ffffff, var(--ge-dark-color, #121212));&quot;&gt;-attendance status and check &lt;font color=&quot;#484848&quot;&gt;-employee location&lt;/font&gt;&lt;/span&gt;&lt;/div&gt;" style="edgeLabel;resizable=0;html=1;;align=left;verticalAlign=bottom;" parent="1" connectable="0" vertex="1">
                    <mxGeometry x="238" y="506" as="geometry"/>
                </mxCell>
                <mxCell id="3" value="" style="endArrow=open;strokeColor=#FF0000;endFill=1;rounded=0;exitX=0;exitY=0.382;exitDx=0;exitDy=0;exitPerimeter=0;" parent="1" edge="1">
                    <mxGeometry relative="1" as="geometry">
                        <mxPoint x="580" y="599.954" as="sourcePoint"/>
                        <mxPoint x="230" y="598" as="targetPoint"/>
                        <Array as="points"/>
                    </mxGeometry>
                </mxCell>
                <mxCell id="4" value="if faluire display&amp;nbsp;exception message" style="edgeLabel;html=1;align=center;verticalAlign=middle;resizable=0;points=[];" parent="3" vertex="1" connectable="0">
                    <mxGeometry x="-0.0067" relative="1" as="geometry">
                        <mxPoint x="1" as="offset"/>
                    </mxGeometry>
                </mxCell>
            </root>
        </mxGraphModel>
    </diagram>
</mxfile>